<svg width="32" height="32" viewBox="0 0 32 32" fill="none" xmlns="http://www.w3.org/2000/svg">
<path d="M19.4795 7.10786C19.4795 7.10786 20.8744 7.69127 21.5082 8.32507C22.142 8.95887 22.7254 10.3537 22.7254 10.3537M20.2908 4.67347C20.2908 4.67347 22.5346 5.29429 23.5367 6.29642C24.5388 7.29854 25.1597 9.5423 25.1597 9.5423M20.6968 1.83325C20.6968 1.83325 23.9811 2.68317 25.5656 4.26767C27.1501 5.85216 28 9.13649 28 9.13649M17.0451 12.7881L14.6107 15.2225M9.47376 22.9057L5.28168 30.1666H18.2017L14.9717 24.572M9.47376 22.9057C8.72709 22.4357 8.03072 21.8802 7.40096 21.2505C6.3886 20.2381 5.56816 19.0536 4.98648 17.7647C4.4048 16.4758 4.07328 15.1077 4.01084 13.7384C3.94839 12.3692 4.15626 11.0257 4.62255 9.78454C5.08885 8.54342 5.80445 7.42902 6.7285 6.50497L22.1465 21.9229C21.2224 22.847 20.108 23.5626 18.8669 24.0289C17.6258 24.4952 16.2822 24.703 14.913 24.6406C13.5437 24.5781 12.1756 24.2466 10.8867 23.6649C10.3996 23.4451 9.92738 23.1912 9.47376 22.9057ZM20.3605 11.3044C20.3605 12.2392 19.6027 12.997 18.6679 12.997C17.7331 12.997 16.9753 12.2392 16.9753 11.3044C16.9753 10.3697 17.7331 9.61188 18.6679 9.61188C19.6027 9.61188 20.3605 10.3697 20.3605 11.3044Z" stroke="white"/>
</svg>
