<svg width="32" height="32" viewBox="0 0 32 32" fill="none" xmlns="http://www.w3.org/2000/svg">
<path d="M11.6246 7.17021C6.90508 4.76777 3.41475 4.3697 2.3116 5.8804C0.698067 8.09006 5.51023 14.3505 13.0599 19.8634C20.6095 25.3763 28.0377 28.0542 29.6513 25.8445C30.7159 24.3866 29.3139 21.3581 25.8434 17.7516M10.2062 8.00314C6.87571 6.40255 4.36446 5.8728 3.66621 6.82902C2.47026 8.46681 7.04586 13.8437 13.8861 18.8386C20.7263 23.8334 27.241 26.5549 28.4369 24.9171C29.118 23.9845 27.9274 21.8393 25.5127 19.2425M25.8434 16.7596C25.8434 22.4209 21.254 27.0103 15.5926 27.0103C9.93134 27.0103 5.34195 22.4209 5.34195 16.7596C5.34195 11.0983 9.93134 6.50885 15.5926 6.50885C21.254 6.50885 25.8434 11.0983 25.8434 16.7596Z" stroke="white" stroke-linecap="round" stroke-linejoin="round"/>
</svg>
